<svg xmlns="http://www.w3.org/2000/svg" width="100" height="100" viewBox="0 0 40 40"><defs><style>.cls-1{fill:#238ffb;}</style></defs><title>Asset 152</title><g id="Layer_2" data-name="Layer 2"><g id="Layer_1-2" data-name="Layer 1"><path class="cls-1" d="M20,40A20,20,0,1,1,40,20,20,20,0,0,1,20,40ZM20,1.66A18.34,18.34,0,1,0,38.34,20,18.36,18.36,0,0,0,20,1.66Z"/><circle class="cls-1" cx="6.47" cy="6.57" r="4.28"/><circle class="cls-1" cx="33.25" cy="6.57" r="4.28"/><circle class="cls-1" cx="6.47" cy="33.35" r="4.28"/><circle class="cls-1" cx="33.25" cy="33.35" r="4.28"/><path class="cls-1" d="M12.68,26.49H27.32s5.34-.11,5.64-5c.29-4.72-4.69-6-4.69-6a7.41,7.41,0,0,0-6.54-5.35A7.76,7.76,0,0,0,14,13.73a4.36,4.36,0,0,0-3.79.59,4.1,4.1,0,0,0-1.19,4,3.87,3.87,0,0,0-2.46,3.79C6.48,26.6,12.68,26.49,12.68,26.49Z"/></g></g></svg>