<?xml version="1.0" standalone="no"?>
<!DOCTYPE svg PUBLIC "-//W3C//DTD SVG 20010904//EN"
 "http://www.w3.org/TR/2001/REC-SVG-20010904/DTD/svg10.dtd">
<svg version="1.0" xmlns="http://www.w3.org/2000/svg"
 width="1365.000000pt" height="768.000000pt" viewBox="0 0 1365.000000 768.000000"
 preserveAspectRatio="xMidYMid meet">

<g transform="translate(0.000000,768.000000) scale(0.100000,-0.100000)"
fill="#000000" stroke="none">
<path d="M888 7673 c6 -2 18 -2 25 0 6 3 1 5 -13 5 -14 0 -19 -2 -12 -5z"/>
<path d="M978 7673 c7 -3 16 -2 19 1 4 3 -2 6 -13 5 -11 0 -14 -3 -6 -6z"/>
<path d="M1958 7673 c81 -4 118 -23 43 -23 -35 0 -38 -2 -34 -24 7 -33 -27
-108 -44 -101 -8 2 -32 -6 -53 -20 -22 -14 -49 -25 -60 -25 -11 0 -20 -6 -20
-14 0 -9 -19 -16 -60 -20 -33 -4 -62 -11 -65 -16 -3 -5 -12 -7 -20 -4 -7 3
-22 0 -32 -6 -17 -11 -17 -11 0 -6 11 4 16 2 11 -5 -3 -6 -17 -9 -30 -6 -13 2
-21 0 -18 -4 2 -4 -11 -11 -31 -15 -19 -3 -35 -10 -35 -16 0 -5 -4 -7 -9 -4
-4 3 -16 -1 -27 -8 -10 -8 -24 -11 -32 -8 -8 3 -17 0 -21 -7 -5 -7 -36 -16
-71 -21 -35 -5 -66 -13 -69 -18 -3 -4 -21 -14 -38 -21 -18 -8 -33 -17 -33 -22
0 -5 -8 -9 -17 -9 -22 -1 -53 -23 -53 -39 0 -7 -5 -9 -11 -5 -10 6 -29 2 -124
-26 -16 -5 -59 -10 -95 -11 -59 -2 -96 -12 -110 -31 -3 -4 -24 -10 -45 -14
-22 -3 -47 -8 -55 -9 -8 -2 -18 -4 -22 -4 -5 -1 -8 -6 -8 -12 0 -5 5 -7 10 -4
6 3 10 4 10 1 0 -11 -79 -58 -89 -52 -5 3 -20 -7 -34 -23 -14 -17 -27 -28 -30
-25 -3 3 -19 -15 -37 -40 -17 -25 -36 -46 -43 -46 -7 0 -6 -4 3 -10 13 -8 13
-11 1 -19 -7 -5 -10 -14 -7 -20 4 -7 -1 -11 -13 -11 -11 0 -28 -10 -38 -22
-14 -19 -26 -22 -60 -20 -24 2 -43 7 -43 13 0 5 -9 9 -20 9 -11 0 -20 5 -20
10 0 6 -9 10 -20 10 -11 0 -20 5 -20 11 0 5 -5 7 -12 3 -7 -4 -43 -9 -82 -11
-38 -2 -76 -9 -83 -15 -15 -12 -18 -48 -3 -48 6 0 10 -16 10 -35 0 -19 -4 -35
-10 -35 -5 0 -10 -4 -10 -10 0 -5 9 -10 20 -10 11 0 20 -4 20 -10 0 -5 18 -7
43 -4 135 18 140 18 175 -15 17 -17 32 -26 32 -19 0 7 6 4 12 -7 6 -11 19 -25
27 -32 19 -15 61 -17 61 -3 0 6 9 10 20 10 11 0 20 4 20 8 0 10 81 32 116 32
17 0 30 9 42 30 11 19 25 30 40 30 12 0 22 5 22 10 0 6 9 10 20 10 11 0 20 -5
20 -12 0 -9 3 -9 12 0 7 7 19 12 27 11 10 0 12 -2 4 -6 -8 -3 -5 -12 11 -28
13 -13 30 -37 37 -54 8 -17 17 -31 21 -31 5 0 8 -13 8 -30 0 -16 5 -30 10 -30
6 0 10 5 10 10 0 6 9 10 20 10 11 0 20 5 20 10 0 6 -9 10 -20 10 -11 0 -20 4
-20 9 0 5 10 9 23 9 12 0 40 3 63 7 31 6 44 3 57 -10 10 -9 15 -21 12 -26 -4
-5 8 -9 24 -9 18 0 31 -5 31 -12 0 -33 22 -88 35 -88 8 0 15 -7 15 -15 0 -8
-6 -15 -14 -15 -19 0 -27 -24 -19 -60 3 -19 1 -30 -6 -30 -6 0 -11 -17 -10
-42 1 -37 2 -39 9 -18 8 23 8 23 9 -8 1 -30 3 -32 16 -18 8 8 15 20 15 26 0
17 26 40 44 40 9 0 16 5 16 10 0 6 -9 10 -20 10 -14 0 -20 7 -20 22 0 21 1 21
13 3 8 -10 19 -15 25 -11 8 5 12 0 12 -13 0 -25 8 -26 46 -6 32 16 110 20 119
6 3 -5 31 -13 63 -17 87 -10 102 -18 102 -54 0 -20 -5 -30 -15 -30 -9 0 -18
-6 -21 -14 -3 -8 -29 -20 -57 -26 -121 -27 -227 -65 -227 -81 0 -9 -9 -19 -20
-22 -15 -4 -20 -14 -21 -39 -2 -69 -11 -83 -54 -84 -22 -1 -52 5 -67 12 -15 8
-38 14 -52 14 -14 0 -65 12 -113 26 -49 14 -101 30 -118 34 -64 18 -75 23 -75
31 0 5 -8 9 -17 9 -10 0 -30 6 -45 14 -15 8 -42 17 -60 21 -18 4 -35 11 -38
15 -3 4 -41 15 -85 25 -171 37 -220 30 -230 -34 -12 -70 -16 -82 -28 -80 -28
3 -57 -2 -57 -10 0 -5 -14 -23 -30 -41 -25 -27 -35 -31 -60 -26 l-30 6 0 -900
c0 -893 0 -900 20 -900 26 0 26 -15 0 -37 -20 -17 -20 -30 -20 -1670 l0 -1652
57 -7 c40 -5 58 -3 61 5 2 7 12 1 23 -13 23 -29 24 -36 4 -36 -9 0 -15 -9 -15
-21 0 -26 -18 -44 -52 -52 -15 -4 -33 -14 -42 -22 -8 -8 -19 -15 -25 -15 -8 0
-11 -106 -11 -345 l0 -345 6825 0 6825 0 0 1361 0 1361 -22 19 -23 19 23 19
c22 19 31 71 13 71 -12 0 -41 57 -33 64 3 3 14 6 24 6 17 0 18 13 18 218 l0
217 -50 33 c-54 36 -58 43 -34 66 18 19 24 19 58 6 l26 -10 0 227 c0 194 -2
225 -14 213 -18 -19 -76 -131 -76 -147 0 -23 -34 -83 -47 -83 -17 0 -17 15 2
34 8 8 15 27 15 43 0 16 4 33 10 39 19 19 110 208 110 228 -1 14 -11 1 -30
-36 -29 -55 -50 -80 -50 -59 0 6 5 11 10 11 6 0 10 7 10 16 0 9 13 41 30 71
17 30 30 68 29 86 0 23 -2 27 -7 14 -7 -16 -10 -15 -31 9 -22 26 -23 41 -6 89
7 20 6 19 -45 -42 -12 -14 -14 -46 -2 -39 4 2 9 -6 10 -20 3 -42 -26 -28 -33
16 -7 44 -28 53 -40 18 -5 -13 -12 -32 -16 -43 -7 -16 -8 -15 -5 8 2 21 -1 27
-15 27 -13 0 -19 7 -19 23 0 13 -5 28 -12 35 -9 9 -9 15 0 24 9 9 12 8 12 -5
0 -10 8 -17 20 -17 15 0 20 7 20 25 0 14 5 25 10 25 6 0 10 4 10 9 0 5 -8 7
-18 4 -10 -2 -24 3 -32 12 -12 14 -14 14 -31 -1 -15 -14 -17 -20 -7 -32 10
-12 9 -14 -7 -11 -33 7 -31 46 4 75 36 30 39 54 10 72 -18 12 -20 20 -16 55 3
23 3 35 0 27 -3 -8 -21 -30 -39 -49 -35 -35 -46 -85 -24 -107 6 -6 2 -20 -11
-39 l-21 -30 5 30 c3 18 0 38 -9 49 -8 11 -14 28 -14 38 0 10 -7 18 -15 18
-11 0 -15 -11 -15 -39 0 -22 -5 -43 -10 -46 -15 -9 -12 62 5 118 13 42 13 49
0 54 -24 9 -18 59 11 88 14 14 23 29 20 34 -3 5 1 14 9 21 13 10 25 10 66 -4
65 -20 81 -20 106 2 24 21 38 66 18 58 -8 -3 -35 14 -60 39 -29 27 -53 41 -62
38 -11 -4 -14 -1 -12 12 2 10 14 22 27 26 20 8 23 6 20 -13 -5 -34 29 -37 38
-3 3 14 19 32 35 41 16 8 29 21 29 29 0 8 5 15 11 15 7 0 10 14 7 35 -4 32 -2
35 23 35 15 0 31 -5 34 -10 4 -6 14 -9 22 -8 24 4 24 -39 0 -46 -15 -4 -18
-10 -13 -30 3 -14 2 -45 -4 -68 -6 -24 -12 -52 -14 -63 -2 -11 -9 -33 -15 -48
-17 -44 -13 -61 18 -80 29 -17 30 -17 55 10 l26 28 0 823 c0 476 -4 821 -9
818 -5 -3 -14 1 -21 9 -7 8 -21 15 -32 15 -11 0 -26 6 -34 14 -15 16 -19 46
-5 46 4 0 7 11 6 25 -3 21 1 25 25 25 15 0 33 7 40 15 7 8 16 12 21 9 5 -3 9
66 9 159 0 160 -1 165 -20 160 -24 -6 -110 5 -109 15 3 22 -3 32 -20 32 -10 0
-21 6 -24 14 -5 12 -29 18 -132 33 -22 3 -42 7 -44 9 -10 9 -9 130 1 229 8 75
14 102 19 85 5 -18 8 -10 9 30 1 30 8 96 15 145 10 75 13 82 15 45 l2 -45 9
60 c4 33 11 80 14 104 5 33 9 41 16 30 7 -9 8 0 3 30 -4 31 -3 42 5 37 11 -7
13 6 16 79 1 22 7 31 26 36 13 4 -2586 7 -5776 6 -3190 -1 -5763 -3 -5717 -4z
m-808 -1220 c-1 -23 -18 -35 -36 -24 -18 10 -18 10 4 11 12 0 22 5 22 10 0 6
2 10 5 10 3 0 5 -3 5 -7z m12159 -106 c17 -7 28 -17 24 -21 -4 -4 0 -4 10 0
12 4 17 1 17 -11 0 -14 -6 -16 -29 -12 -15 3 -51 9 -80 13 -31 4 -51 12 -51
19 0 26 60 33 109 12z m-6350 -566 c366 -121 725 -238 796 -260 72 -21 189
-58 260 -81 72 -23 204 -63 295 -91 91 -27 192 -59 225 -70 33 -12 106 -36
163 -53 56 -18 107 -37 114 -44 15 -15 -10 -42 -102 -115 -86 -69 -110 -92
-110 -105 0 -6 42 -24 93 -40 57 -18 93 -35 95 -44 2 -9 -24 -39 -59 -69 -91
-80 -110 -99 -105 -108 3 -4 35 -16 71 -26 37 -10 69 -24 72 -33 4 -10 -8 -28
-33 -50 -90 -80 -104 -94 -99 -102 3 -4 28 -13 56 -20 59 -15 71 -33 38 -63
-28 -26 -118 -109 -289 -268 -69 -64 -146 -134 -172 -155 -68 -56 -61 -78 15
-48 8 3 17 -2 21 -12 7 -17 -9 -44 -26 -44 -6 0 -25 -7 -43 -16 -26 -12 -38
-13 -55 -4 -25 13 -38 4 -150 -103 -73 -71 -109 -102 -204 -180 -51 -43 -57
-68 -24 -91 29 -20 19 -29 -12 -11 -14 8 -31 17 -38 21 -7 4 -27 -8 -47 -27
-93 -91 -113 -109 -121 -109 -5 0 -23 -13 -39 -28 -17 -16 -37 -31 -44 -33 -8
-3 -16 -15 -17 -26 -4 -26 -43 -67 -81 -85 -23 -11 -27 -19 -25 -43 2 -17 8
-31 13 -33 15 -6 11 -72 -5 -72 -7 0 -27 -7 -42 -15 -16 -8 -41 -15 -55 -15
-52 0 -117 -30 -141 -66 -12 -18 -29 -34 -35 -34 -7 0 -13 -6 -13 -14 0 -27
-29 -37 -107 -37 -90 0 -136 11 -170 43 -12 12 -23 17 -23 13 0 -5 -7 1 -16
13 -8 12 -19 20 -23 17 -5 -2 -28 9 -52 25 -24 16 -50 30 -56 30 -7 0 -13 4
-13 8 0 4 -21 13 -46 20 -50 14 -102 48 -83 54 7 2 -8 10 -32 18 -59 18 -68
27 -34 36 17 4 36 2 48 -5 15 -10 21 -10 27 -1 5 9 9 9 14 1 4 -6 20 -11 35
-11 16 0 40 -11 55 -25 15 -14 33 -25 41 -25 23 0 65 -22 59 -31 -2 -5 18 -11
46 -15 32 -4 55 -13 63 -25 9 -12 30 -19 67 -22 30 -3 56 -10 58 -15 4 -13 94
-2 113 14 8 8 22 14 30 14 8 0 15 9 16 20 2 24 34 57 98 101 28 19 56 42 62
51 27 35 92 98 102 98 6 0 11 5 11 10 0 6 5 10 11 10 6 0 39 29 74 65 36 37
71 65 82 65 11 0 29 12 39 27 10 15 32 38 48 52 16 15 46 41 66 59 21 17 43
32 49 32 6 0 11 4 11 9 0 17 185 191 204 191 2 0 19 15 38 33 61 59 220 200
306 272 61 50 86 83 57 71 -8 -3 -15 -2 -15 3 0 16 13 21 27 10 10 -9 18 -8
31 4 9 8 78 67 152 132 74 64 136 120 138 124 2 7 -83 41 -103 41 -11 0 -29
-15 -175 -150 -57 -52 -113 -104 -126 -115 -119 -107 -144 -132 -144 -142 0
-7 -8 -13 -17 -13 -10 0 -39 -19 -64 -43 -25 -23 -71 -64 -102 -92 -32 -27
-57 -54 -57 -60 0 -9 -33 -33 -82 -60 -12 -6 -18 -21 -18 -42 0 -19 -5 -33
-12 -34 -7 -1 -2 -5 12 -9 23 -7 23 -8 3 -9 -12 -1 -25 4 -28 9 -10 16 -29 12
-53 -10 -12 -12 -22 -17 -22 -13 0 4 -10 -4 -23 -18 -12 -14 -30 -28 -39 -32
-10 -3 -18 -13 -18 -21 0 -7 -11 -17 -25 -20 -14 -4 -32 -17 -41 -31 -9 -14
-25 -25 -36 -25 -14 0 -18 -5 -14 -16 3 -8 2 -13 -3 -10 -4 3 -32 -20 -62 -50
-30 -31 -60 -61 -68 -67 -8 -7 -50 -47 -93 -89 -43 -43 -80 -78 -83 -78 -7 0
-45 39 -45 45 0 3 7 5 15 5 8 0 15 5 15 10 0 6 9 10 20 10 11 0 20 6 20 13 0
8 9 22 20 32 11 10 20 27 20 37 0 18 46 67 62 68 23 1 89 37 93 51 5 15 27 29
70 44 12 4 15 9 8 12 -19 7 7 43 31 43 16 0 17 3 8 12 -19 19 -15 24 27 37 28
8 45 22 60 47 12 20 30 38 41 41 11 3 20 9 20 13 0 5 9 11 19 15 11 3 37 23
58 43 21 21 49 45 62 54 15 11 26 31 30 55 6 36 9 38 45 41 25 2 49 13 69 32
72 65 180 156 207 175 16 11 29 25 30 31 0 7 7 14 15 18 34 13 263 219 258
232 -4 10 0 12 11 8 16 -6 46 11 46 27 0 12 -50 36 -91 44 -29 5 -44 1 -81
-22 -25 -16 -58 -42 -73 -58 -14 -17 -23 -24 -19 -16 5 9 3 12 -4 7 -7 -4 -12
-14 -12 -22 0 -8 -7 -14 -15 -14 -9 0 -12 -6 -8 -17 4 -11 3 -14 -5 -9 -12 7
-52 -27 -52 -44 0 -5 -7 -10 -16 -10 -8 0 -13 -4 -10 -9 8 -12 -31 -44 -43
-36 -6 3 -11 0 -11 -8 0 -8 -17 -24 -37 -35 -52 -26 -98 -72 -106 -102 -5 -19
-17 -29 -51 -39 -30 -8 -43 -17 -40 -26 5 -13 -29 -39 -38 -30 -3 3 -13 -4
-23 -15 -10 -11 -22 -20 -26 -20 -5 0 -26 -18 -46 -40 -21 -22 -42 -40 -47
-40 -5 0 -29 -20 -53 -45 -25 -24 -53 -47 -64 -50 -10 -4 -19 -13 -19 -21 0
-8 -4 -14 -9 -14 -6 0 -22 -11 -37 -25 -31 -29 -54 -32 -54 -7 0 20 61 72 84
72 9 0 16 6 16 13 0 8 9 22 20 32 11 10 20 24 20 31 0 7 12 14 28 16 24 3 27
7 24 34 -4 41 17 57 68 52 28 -2 40 0 40 9 0 14 59 72 73 73 5 0 21 12 36 28
71 71 120 112 135 112 9 0 16 5 16 11 0 11 70 78 82 79 4 0 10 9 13 20 3 11
13 20 22 20 8 0 24 11 35 25 11 14 23 23 28 20 4 -3 7 3 6 12 0 10 7 19 18 21
29 6 143 108 132 119 -18 19 -153 59 -181 53 -42 -8 -47 -40 -6 -40 35 0 43
-24 11 -33 -21 -5 -45 10 -52 33 -4 11 -9 10 -23 -8 -11 -12 -25 -22 -31 -22
-7 0 -14 -7 -18 -15 -3 -8 -12 -15 -20 -15 -7 0 -16 -7 -20 -15 -3 -8 -11 -15
-18 -15 -7 0 -19 -9 -26 -20 -7 -11 -19 -20 -27 -20 -9 0 -12 -6 -9 -15 6 -13
-6 -20 -28 -16 -4 0 -12 -8 -18 -19 -6 -11 -16 -20 -23 -20 -7 0 -18 -9 -25
-20 -14 -24 -32 -26 -32 -5 0 9 16 29 34 46 21 18 33 36 29 45 -4 10 2 14 20
14 23 0 46 16 125 87 13 13 27 21 31 19 4 -3 12 8 19 24 8 17 19 27 26 24 16
-6 30 26 18 38 -8 8 -611 216 -812 279 -52 17 -113 36 -135 43 -22 8 -76 28
-120 46 -82 33 -216 80 -430 151 -66 22 -129 44 -140 48 -55 24 -165 52 -177
45 -66 -39 -309 -204 -337 -229 -20 -18 -47 -36 -61 -40 -27 -8 -159 -89 -360
-220 -69 -45 -145 -94 -170 -109 -25 -15 -56 -35 -70 -45 -14 -10 -57 -39 -97
-66 -91 -60 -96 -71 -29 -67 31 2 46 0 38 -6 -25 -17 1 -41 76 -70 42 -17 88
-34 102 -38 14 -4 28 -12 32 -18 4 -6 27 -11 52 -10 35 1 46 -3 49 -17 3 -11
19 -20 43 -25 22 -4 56 -18 76 -31 24 -16 44 -23 57 -18 12 3 21 2 21 -4 0 -5
21 -19 46 -31 55 -24 58 -24 51 -5 -8 18 11 31 25 17 8 -8 8 -15 -1 -26 -16
-19 0 -29 33 -20 18 4 28 1 38 -15 7 -12 17 -21 21 -21 12 0 76 -28 230 -99
37 -17 78 -31 92 -31 13 0 26 -4 29 -9 3 -5 32 -19 63 -31 78 -30 127 -53 131
-62 2 -5 15 -8 28 -8 13 0 46 -9 72 -21 26 -12 57 -25 70 -30 12 -5 32 -14 45
-20 13 -6 41 -9 63 -7 31 2 43 -2 57 -19 11 -14 29 -23 47 -23 38 0 60 -9 60
-26 0 -7 16 -16 36 -20 27 -5 42 -2 63 13 27 21 91 21 91 1 0 -21 -22 -49 -36
-44 -8 3 -19 -4 -25 -16 -10 -18 -17 -20 -65 -15 -34 4 -61 13 -75 26 -13 12
-36 21 -55 21 -17 0 -37 7 -44 15 -7 8 -22 15 -34 15 -12 0 -27 5 -32 10 -8 8
-19 8 -38 0 -36 -13 -83 -13 -92 1 -7 12 15 31 28 23 4 -3 8 -1 8 5 0 19 -29
39 -67 46 -21 4 -40 10 -43 13 -9 12 -71 42 -86 42 -8 0 -14 5 -14 10 0 6 -9
10 -20 10 -11 0 -34 9 -52 20 -18 11 -39 20 -47 20 -8 0 -37 11 -65 24 -28 13
-95 40 -148 60 -54 20 -106 41 -117 47 -18 12 -32 9 -63 -13 -24 -17 -52 7
-38 33 9 16 4 21 -34 39 -25 11 -54 20 -66 20 -11 0 -33 9 -48 20 -15 11 -46
23 -67 27 -22 3 -44 12 -50 20 -5 7 -34 19 -62 25 -29 7 -53 16 -53 20 0 5 -7
8 -15 8 -8 0 -29 9 -47 20 -18 11 -37 20 -43 20 -5 0 -2 -5 8 -11 23 -13 13
-29 -19 -29 -24 0 -32 14 -14 25 18 11 10 23 -20 30 -16 4 -30 10 -30 14 0 3
-20 13 -45 20 -25 7 -45 17 -45 21 0 5 -20 12 -46 16 -34 5 -48 3 -57 -8 -16
-20 -45 -30 -52 -18 -4 6 -16 10 -28 11 -20 0 -20 1 -4 8 17 6 17 8 4 20 -19
15 -33 9 -124 -56 -41 -29 -63 -52 -63 -65 0 -15 5 -18 20 -13 15 5 26 0 41
-19 11 -14 27 -26 36 -26 14 0 109 -41 176 -77 16 -8 37 -13 48 -10 10 3 19 1
19 -4 0 -6 17 -17 38 -25 20 -8 51 -21 67 -29 83 -39 265 -115 274 -115 6 0
11 -3 11 -8 0 -10 96 -35 145 -37 22 -1 39 -6 38 -12 -4 -21 38 -48 77 -48 21
0 34 -3 28 -6 -16 -10 82 -51 126 -53 25 -1 41 -6 44 -16 3 -8 10 -18 16 -22
8 -5 6 -12 -5 -23 -14 -14 -19 -14 -52 0 -20 8 -45 15 -56 15 -11 0 -26 7 -35
15 -8 8 -24 15 -35 15 -11 0 -23 5 -26 10 -12 20 -138 70 -176 70 -43 0 -69 8
-69 22 0 17 -26 36 -68 49 -23 7 -42 16 -42 20 0 4 -15 11 -32 14 -18 4 -37
11 -43 15 -14 11 -158 70 -170 70 -6 0 -22 8 -35 17 -14 10 -32 19 -41 20 -9
1 -45 16 -80 33 -35 16 -80 33 -99 36 -19 4 -42 12 -50 19 -8 7 -33 18 -55 25
-22 7 -44 15 -50 19 -5 3 -18 4 -29 2 -10 -1 -22 3 -27 11 -7 10 -14 10 -41
-5 -46 -25 -128 -86 -128 -95 0 -10 81 -42 107 -42 12 0 24 -4 27 -9 7 -11 78
-44 236 -111 69 -29 148 -63 175 -75 28 -13 61 -26 75 -30 14 -4 52 -21 85
-37 95 -46 217 -95 256 -102 19 -3 44 -14 55 -24 67 -62 175 -84 202 -42 9 15
23 20 50 20 20 -1 51 2 68 5 24 5 33 3 38 -11 9 -22 -20 -54 -50 -54 -32 0
-39 -16 -19 -46 10 -16 25 -25 38 -24 58 5 78 0 89 -25 6 -14 19 -25 28 -25 9
0 25 -9 35 -20 10 -11 31 -20 47 -20 15 0 28 -4 28 -10 0 -5 11 -10 24 -10 13
0 35 -9 49 -20 14 -11 32 -20 41 -20 9 0 16 -4 16 -10 0 -13 -83 -13 -96 0 -6
6 -39 15 -75 21 -57 8 -113 29 -144 52 -34 25 -85 55 -115 67 -19 7 -44 20
-55 27 -11 7 -27 13 -36 13 -9 0 -28 9 -43 21 -14 11 -26 18 -26 15 0 -3 -17
3 -37 14 -21 11 -57 20 -81 20 -33 0 -49 6 -68 25 -39 39 -95 55 -134 38 -50
-21 -59 -17 -72 32 -10 36 -18 47 -38 52 -14 3 -51 19 -82 35 -32 15 -61 29
-65 30 -5 1 -33 12 -63 25 -30 13 -64 27 -75 32 -11 5 -42 18 -70 29 -27 12
-69 26 -92 32 -24 6 -43 15 -43 19 0 11 -74 41 -100 41 -11 0 -20 4 -20 9 0
10 -104 61 -122 61 -15 0 -128 -72 -128 -81 0 -10 74 -49 93 -49 7 0 42 -16
77 -35 36 -19 77 -35 92 -35 15 0 33 -6 40 -13 19 -19 78 -47 100 -47 11 0 56
-19 101 -42 46 -24 107 -54 137 -66 30 -13 63 -28 72 -33 10 -5 24 -9 33 -9
12 0 139 -59 217 -101 10 -5 24 -9 32 -9 7 0 19 -6 25 -14 6 -7 27 -16 46 -19
19 -3 41 -12 49 -20 8 -7 45 -24 83 -36 37 -13 80 -34 94 -47 16 -15 32 -22
42 -18 15 5 163 -57 177 -75 3 -3 20 -7 38 -8 18 -1 40 -9 48 -18 9 -8 22 -15
30 -15 8 0 13 -4 9 -9 -8 -15 10 -22 82 -32 37 -5 70 -13 73 -17 3 -4 22 -20
43 -35 50 -37 49 -57 -3 -57 -22 0 -40 3 -40 8 0 4 -15 7 -34 8 -19 0 -41 8
-51 17 -9 9 -21 17 -26 17 -5 0 -9 6 -9 13 0 8 -18 20 -40 27 -22 7 -40 17
-40 22 0 4 -13 8 -30 8 -16 0 -30 4 -30 8 0 5 -14 9 -31 10 -17 0 -39 8 -48
16 -10 9 -25 16 -35 16 -9 0 -15 4 -11 9 3 6 -8 8 -28 4 -27 -4 -39 0 -64 24
-18 17 -57 38 -88 47 -30 10 -61 23 -68 30 -24 21 -56 36 -97 42 -22 4 -40 10
-40 15 0 11 -59 39 -82 39 -11 0 -32 8 -46 18 -15 10 -43 25 -62 32 -19 8 -70
31 -112 52 -42 21 -81 38 -85 38 -4 0 -21 7 -38 16 -16 8 -75 35 -130 59 -168
73 -288 125 -330 145 -22 10 -67 30 -100 45 -74 33 -107 57 -97 71 4 6 35 29
70 53 34 23 62 47 62 54 0 7 -28 22 -62 35 -35 13 -70 27 -78 31 -23 12 -25
50 -3 58 10 4 27 15 38 26 11 10 36 27 56 37 69 36 67 44 -16 79 -41 17 -78
31 -81 31 -17 0 -41 33 -37 50 3 10 49 47 104 82 54 34 98 68 99 75 0 6 -37
26 -82 43 -128 48 -153 62 -156 92 -3 22 2 28 31 37 19 7 48 23 63 36 16 14
33 24 39 24 21 -3 38 1 32 7 -9 9 19 34 37 34 8 0 17 4 21 10 8 13 177 126
234 156 25 13 87 48 136 78 50 30 119 71 155 92 384 220 681 398 1064 638 93
58 172 106 175 106 2 0 304 -99 670 -219z m-5529 164 c19 -4 42 -9 50 -12 8
-4 18 -7 23 -7 4 -1 7 -4 8 -8 0 -4 4 -21 9 -37 6 -24 5 -30 -9 -34 -10 -2
-26 2 -36 9 -10 8 -30 14 -43 14 -13 0 -36 6 -50 14 -15 8 -43 17 -63 21 -44
7 -74 28 -67 46 4 12 20 13 74 7 38 -4 85 -10 104 -13z m-1363 -1 c28 9 53 -3
53 -24 0 -25 20 -38 65 -42 31 -2 41 -8 44 -23 2 -11 0 -17 -4 -13 -5 4 -16
-2 -26 -13 -14 -16 -23 -19 -41 -13 -22 8 -29 9 -75 13 -35 2 -54 27 -42 58 5
14 7 28 4 31 -3 3 -5 -1 -6 -9 0 -8 -4 -5 -8 6 -10 24 -2 53 9 35 4 -7 16 -9
27 -6z m1521 -68 c-10 -7 -18 -18 -18 -23 0 -5 -7 -10 -15 -10 -18 0 -20 33
-2 40 6 3 21 6 32 6 19 0 19 0 3 -13z m65 -35 c12 -1 17 -7 15 -17 -2 -12 -16
-17 -45 -19 -36 -2 -43 1 -43 15 0 20 16 29 40 24 8 -1 23 -3 33 -3z m145 -87
c-4 -3 -19 -4 -35 -2 l-28 4 25 11 c23 10 51 1 38 -13z m796 -279 c15 -8 47
-15 70 -15 42 0 96 -18 96 -32 0 -5 9 -8 20 -8 11 0 20 -6 20 -14 0 -9 20 -16
63 -20 37 -5 70 -15 82 -25 11 -11 44 -21 74 -24 34 -4 68 -16 90 -31 20 -14
50 -26 66 -27 41 -3 105 19 105 37 0 16 56 20 62 5 7 -20 98 -17 98 3 0 23 52
27 73 6 23 -26 22 -50 -3 -50 -11 0 -20 -4 -20 -10 0 -5 -11 -10 -24 -10 -14
0 -28 5 -31 10 -10 16 -33 12 -39 -8 -3 -10 -21 -24 -38 -31 l-33 -13 32 -10
c17 -6 34 -19 36 -29 3 -11 14 -19 25 -19 14 0 22 -8 24 -22 2 -16 9 -22 21
-20 14 3 18 -2 15 -20 -4 -29 -53 -36 -97 -13 -17 8 -52 18 -78 21 -50 6 -103
24 -103 35 0 4 -17 10 -37 14 -21 4 -46 14 -56 22 -9 9 -32 18 -50 20 -67 6
-129 26 -158 50 -16 14 -27 29 -23 34 3 5 -4 9 -15 9 -12 0 -21 4 -21 9 0 5
-16 12 -35 15 -19 4 -35 11 -35 16 0 5 -20 15 -45 21 -25 6 -45 15 -45 19 0 5
-13 11 -29 15 -27 6 -42 15 -99 62 -15 13 -34 23 -42 23 -8 0 -22 5 -30 10
-25 16 82 12 114 -5z m8336 -184 c0 -37 -12 -51 -41 -51 -32 0 -37 17 -17 50
17 26 58 27 58 1z m-9885 -61 c14 -22 -6 -50 -36 -50 -24 0 -29 4 -29 24 0 13
6 27 13 29 21 9 46 7 52 -3z m3435 -30 c0 -5 -9 -10 -20 -10 -11 0 -20 5 -20
10 0 6 9 10 20 10 11 0 20 -4 20 -10z m9038 -44 c1 -2 6 -20 9 -40 l6 -37 -39
6 c-21 4 -43 12 -49 19 -5 6 -17 11 -25 11 -22 0 -25 42 -3 48 17 5 94 0 101
-7z m-9585 -10 c7 -17 -11 -36 -35 -36 -13 0 -18 8 -18 25 0 20 5 25 24 25 13
0 26 -6 29 -14z m2347 -40 c0 -16 -7 -27 -20 -31 -25 -8 -40 1 -40 24 0 24 9
31 37 31 18 0 23 -6 23 -24z m-3180 -21 c0 -27 -24 -40 -39 -21 -8 9 -6 18 6
33 21 25 33 21 33 -12z m8954 2 c8 -14 8 -20 -4 -27 -36 -23 -70 -1 -56 36 8
20 45 15 60 -9z m-9102 -33 c44 -13 58 -21 56 -33 -2 -9 -13 -17 -26 -19 -12
-2 -20 -8 -17 -13 4 -5 -5 -9 -19 -9 -14 0 -26 -4 -26 -10 0 -6 -28 -10 -65
-10 -37 0 -65 -4 -65 -10 0 -12 -37 -13 -42 -2 -5 14 -68 23 -68 11 0 -6 -7
-8 -16 -5 -11 4 -18 -1 -21 -14 -3 -11 -14 -20 -24 -20 -11 0 -19 -3 -19 -8 0
-4 -15 -13 -32 -20 -18 -7 -40 -17 -48 -21 -15 -8 -60 3 -60 14 0 12 29 35 44
35 9 0 16 5 16 10 0 6 9 10 20 10 11 0 20 6 20 14 0 19 26 27 68 21 17 -2 32
0 32 5 0 6 -6 10 -12 11 -13 1 9 8 86 28 21 5 42 15 46 21 7 12 57 27 94 29
11 1 46 -6 78 -15z m604 -3 c5 -5 18 -11 29 -14 16 -4 14 -5 -7 -7 -70 -6 -87
-2 -64 15 23 17 29 18 42 6z m514 -130 c8 -6 14 -24 13 -46 -1 -43 -1 -43 -41
-51 -28 -6 -33 -3 -48 29 -17 36 -17 36 7 56 26 22 46 26 69 12z m-1345 -10
c3 -5 2 -12 -3 -15 -5 -3 -9 1 -9 9 0 17 3 19 12 6z m22 -13 c-3 -8 -6 -5 -6
6 -1 11 2 17 5 13 3 -3 4 -12 1 -19z m1173 -8 c0 -5 -9 -10 -20 -10 -11 0 -20
5 -20 10 0 6 9 10 20 10 11 0 20 -4 20 -10z m2018 -57 c5 -17 -48 -37 -61 -24
-5 5 -7 17 -3 26 7 19 57 17 64 -2z m-3538 -33 c0 -5 -5 -10 -11 -10 -5 0 -7
5 -4 10 3 6 8 10 11 10 2 0 4 -4 4 -10z m1477 -32 c-3 -7 -5 -2 -5 12 0 14 2
19 5 13 2 -7 2 -19 0 -25z m2123 22 c0 -5 -4 -10 -10 -10 -5 0 -10 5 -10 10 0
6 5 10 10 10 6 0 10 -4 10 -10z m240 -20 c0 -5 -4 -10 -10 -10 -5 0 -10 5 -10
10 0 6 5 10 10 10 6 0 10 -4 10 -10z m625 1 c3 -5 1 -13 -5 -16 -15 -9 -43 3
-35 15 8 13 32 13 40 1z m-1285 -11 c0 -5 -2 -10 -4 -10 -3 0 -8 5 -11 10 -3
6 -1 10 4 10 6 0 11 -4 11 -10z m-4317 -24 c3 -12 -30 -32 -39 -24 -11 12 5
40 21 36 9 -2 17 -7 18 -12z m4557 4 c0 -5 -4 -10 -10 -10 -5 0 -10 5 -10 10
0 6 5 10 10 10 6 0 10 -4 10 -10z m378 -2 c15 -15 -3 -38 -29 -38 -24 0 -33
18 -19 35 15 18 32 19 48 3z m152 -8 c0 -5 -4 -10 -10 -10 -5 0 -10 5 -10 10
0 6 5 10 10 10 6 0 10 -4 10 -10z m985 -23 c-9 -5 -24 -6 -33 -2 -16 6 -15 8
2 21 15 10 23 11 33 2 12 -10 12 -13 -2 -21z m80 23 c3 -5 -1 -10 -10 -10 -9
0 -13 5 -10 10 3 6 8 10 10 10 2 0 7 -4 10 -10z m336 -23 c-13 -13 -26 -3 -16
12 3 6 11 8 17 5 6 -4 6 -10 -1 -17z m-1966 -7 c3 -5 -1 -10 -10 -10 -9 0 -13
5 -10 10 3 6 8 10 10 10 2 0 7 -4 10 -10z m1100 -10 c0 -15 -22 -16 -55 -3
-12 4 -11 7 5 13 28 12 50 7 50 -10z m835 0 c0 -5 -7 -10 -16 -10 -8 0 -12 5
-9 10 3 6 10 10 16 10 5 0 9 -4 9 -10z m-2110 -10 c0 -5 -2 -10 -4 -10 -3 0
-8 5 -11 10 -3 6 -1 10 4 10 6 0 11 -4 11 -10z m255 0 c-3 -5 -10 -10 -16 -10
-5 0 -9 5 -9 10 0 6 7 10 16 10 8 0 12 -4 9 -10z m1075 0 c0 -5 -2 -10 -4 -10
-3 0 -8 5 -11 10 -3 6 -1 10 4 10 6 0 11 -4 11 -10z m539 1 c19 -12 5 -31 -24
-31 -13 0 -27 5 -31 11 -7 11 12 29 31 29 6 0 16 -4 24 -9z m161 -11 c0 -5 -4
-10 -10 -10 -5 0 -10 5 -10 10 0 6 5 10 10 10 6 0 10 -4 10 -10z m-2065 -10
c3 -5 1 -10 -4 -10 -6 0 -11 5 -11 10 0 6 2 10 4 10 3 0 8 -4 11 -10z m1495
-10 c0 -5 -4 -10 -10 -10 -5 0 -10 5 -10 10 0 6 5 10 10 10 6 0 10 -4 10 -10z
m665 -21 c-3 -4 -12 -6 -20 -3 -8 4 -13 10 -10 15 3 4 12 6 20 3 8 -4 13 -10
10 -15z m-1298 5 c-3 -3 -12 -4 -19 -1 -8 3 -5 6 6 6 11 1 17 -2 13 -5z m293
-4 c0 -5 -4 -10 -10 -10 -5 0 -10 5 -10 10 0 6 5 10 10 10 6 0 10 -4 10 -10z
m-1255 -11 c4 -6 5 -12 2 -15 -7 -7 -37 7 -37 17 0 13 27 11 35 -2z m195 1 c0
-5 -4 -10 -10 -10 -5 0 -10 5 -10 10 0 6 5 10 10 10 6 0 10 -4 10 -10z m115 0
c3 -5 -1 -10 -10 -10 -9 0 -13 5 -10 10 3 6 8 10 10 10 2 0 7 -4 10 -10z m725
0 c0 -5 -4 -10 -10 -10 -5 0 -10 5 -10 10 0 6 5 10 10 10 6 0 10 -4 10 -10z
m-950 -8 c0 -5 9 -18 20 -30 14 -15 17 -22 7 -22 -16 0 -58 46 -50 54 9 9 23
7 23 -2z m1094 -1 c3 -5 -6 -12 -20 -15 -29 -8 -39 -3 -29 13 8 13 42 14 49 2z
m201 -11 c3 -5 1 -10 -4 -10 -6 0 -11 5 -11 10 0 6 2 10 4 10 3 0 8 -4 11 -10z
m895 -4 c0 -3 -4 -8 -10 -11 -5 -3 -10 -1 -10 4 0 6 5 11 10 11 6 0 10 -2 10
-4z m140 -6 c0 -5 -2 -10 -4 -10 -3 0 -8 5 -11 10 -3 6 -1 10 4 10 6 0 11 -4
11 -10z m-2400 -10 c0 -5 -4 -10 -10 -10 -5 0 -10 5 -10 10 0 6 5 10 10 10 6
0 10 -4 10 -10z m2320 -16 c0 -2 -9 -4 -20 -4 -11 0 -20 4 -20 9 0 5 9 7 20 4
11 -3 20 -7 20 -9z m5097 7 c11 -1 -50 -71 -62 -71 -3 0 -5 18 -5 39 0 37 2
39 28 36 15 -2 32 -4 39 -4z m-12757 -21 c-6 -11 -15 -18 -20 -15 -4 3 -11 -1
-13 -7 -3 -7 -6 -1 -6 15 -1 22 3 27 24 27 23 0 24 -2 15 -20z m5770 -5 c0 -8
-4 -15 -10 -15 -5 0 -10 7 -10 15 0 8 5 15 10 15 6 0 10 -7 10 -15z m-4110 -5
c13 -9 12 -12 -4 -25 -23 -18 -26 -18 -46 -5 -13 9 -12 12 4 25 23 18 26 18
46 5z m3490 -5 c0 -8 -7 -15 -15 -15 -26 0 -18 20 13 29 1 1 2 -6 2 -14z m195
5 c3 -5 1 -10 -4 -10 -6 0 -11 5 -11 10 0 6 2 10 4 10 3 0 8 -4 11 -10z m485
0 c0 -5 -4 -10 -10 -10 -5 0 -10 5 -10 10 0 6 5 10 10 10 6 0 10 -4 10 -10z
m2970 -10 c0 -11 -6 -20 -13 -20 -19 0 -27 10 -20 26 8 21 33 17 33 -6z
m-3328 -12 c-7 -7 -12 -8 -12 -2 0 14 12 26 19 19 2 -3 -1 -11 -7 -17z m1373
12 c3 -5 2 -10 -4 -10 -5 0 -13 5 -16 10 -3 6 -2 10 4 10 5 0 13 -4 16 -10z
m692 -6 c-3 -3 -12 -4 -19 -1 -8 3 -5 6 6 6 11 1 17 -2 13 -5z m5511 -26 c-4
-45 -32 -49 -47 -7 -6 18 -11 34 -11 35 0 2 14 4 31 4 28 0 30 -2 27 -32z
m-6458 12 c0 -5 -4 -10 -10 -10 -5 0 -10 5 -10 10 0 6 5 10 10 10 6 0 10 -4
10 -10z m170 0 c0 -5 -4 -10 -10 -10 -5 0 -10 5 -10 10 0 6 5 10 10 10 6 0 10
-4 10 -10z m6190 -10 c0 -15 -7 -20 -25 -20 -18 0 -25 5 -25 20 0 15 7 20 25
20 18 0 25 -5 25 -20z m-7510 0 c0 -5 -4 -10 -10 -10 -5 0 -10 5 -10 10 0 6 5
10 10 10 6 0 10 -4 10 -10z m824 -31 c-7 -12 -54 -12 -54 0 0 5 3 16 6 25 5
14 8 14 30 0 13 -9 21 -20 18 -25z m-1067 7 c-5 -14 -33 -20 -55 -11 -16 6
-16 7 1 20 20 15 60 8 54 -9z m2238 14 c-27 -12 -35 -12 -35 0 0 6 12 10 28 9
24 0 25 -1 7 -9z m85 0 c0 -5 -2 -10 -4 -10 -3 0 -8 5 -11 10 -3 6 -1 10 4 10
6 0 11 -4 11 -10z m255 0 c3 -5 -1 -10 -9 -10 -9 0 -16 5 -16 10 0 6 4 10 9
10 6 0 13 -4 16 -10z m-390 -10 c3 -5 -1 -10 -9 -10 -9 0 -16 5 -16 10 0 6 4
10 9 10 6 0 13 -4 16 -10z m240 0 c3 -5 1 -10 -4 -10 -6 0 -11 5 -11 10 0 6 2
10 4 10 3 0 8 -4 11 -10z m-1905 -20 c12 -8 11 -10 -7 -10 -13 0 -23 5 -23 10
0 13 11 13 30 0z m-270 -20 c0 -5 -9 -10 -20 -10 -11 0 -20 5 -20 10 0 6 9 10
20 10 11 0 20 -4 20 -10z m1004 4 c13 -5 14 -9 5 -20 -14 -18 -33 -18 -48 -1
-18 23 7 35 43 21z m6406 -3 c0 -4 -11 -6 -25 -3 -14 2 -25 6 -25 8 0 2 11 4
25 4 14 0 25 -4 25 -9z m-6050 -26 c0 -8 -17 -17 -42 -22 -27 -6 -43 -14 -43
-23 0 -8 -8 -16 -19 -18 -12 -3 -17 1 -14 10 3 7 -2 19 -11 25 -14 11 -14 14
-1 23 8 6 26 9 40 6 14 -2 36 2 50 9 27 15 40 11 40 -10z m660 15 c0 -5 -4
-10 -10 -10 -5 0 -10 5 -10 10 0 6 5 10 10 10 6 0 10 -4 10 -10z m230 0 c0 -5
-4 -10 -10 -10 -5 0 -10 5 -10 10 0 6 5 10 10 10 6 0 10 -4 10 -10z m140 0 c0
-5 -2 -10 -4 -10 -3 0 -8 5 -11 10 -3 6 -1 10 4 10 6 0 11 -4 11 -10z m5170
-9 c0 -11 -9 -22 -19 -26 -11 -3 -22 -14 -24 -23 -3 -9 -5 2 -6 26 -1 38 1 42
24 42 18 0 25 -5 25 -19z m-3602 -12 c-17 -11 -48 -11 -48 -1 0 15 10 19 36
14 19 -3 22 -7 12 -13z m-1521 5 c-3 -3 -12 -4 -19 -1 -8 3 -5 6 6 6 11 1 17
-2 13 -5z m-2437 -14 c0 -5 -7 -10 -16 -10 -8 0 -12 5 -9 10 3 6 10 10 16 10
5 0 9 -4 9 -10z m855 0 c3 -5 1 -10 -4 -10 -6 0 -11 5 -11 10 0 6 2 10 4 10 3
0 8 -4 11 -10z m745 0 c0 -5 -5 -10 -11 -10 -5 0 -7 5 -4 10 3 6 8 10 11 10 2
0 4 -4 4 -10z m1210 -10 c0 -5 -9 -10 -20 -10 -11 0 -20 5 -20 10 0 6 9 10 20
10 11 0 20 -4 20 -10z m3054 -11 c-3 -5 -10 -7 -15 -3 -5 3 -7 10 -3 15 3 5
10 7 15 3 5 -3 7 -10 3 -15z m1746 -10 c0 -11 -29 -39 -41 -39 -13 0 -11 44 3
58 12 12 38 -1 38 -19z m-6420 12 c0 -12 -20 -25 -27 -18 -7 7 6 27 18 27 5 0
9 -4 9 -9z m240 5 c0 -3 -4 -8 -10 -11 -5 -3 -10 -1 -10 4 0 6 5 11 10 11 6 0
10 -2 10 -4z m140 -15 c0 -3 -9 -12 -20 -19 -26 -16 -68 2 -51 22 10 12 71 10
71 -3z m4470 9 c0 -5 -4 -10 -10 -10 -5 0 -10 5 -10 10 0 6 5 10 10 10 6 0 10
-4 10 -10z m-6010 -10 c0 -5 -4 -10 -10 -10 -5 0 -10 5 -10 10 0 6 5 10 10 10
6 0 10 -4 10 -10z m30 0 c0 -5 -4 -10 -10 -10 -5 0 -10 5 -10 10 0 6 5 10 10
10 6 0 10 -4 10 -10z m350 -4 c0 -3 -4 -8 -10 -11 -5 -3 -10 -1 -10 4 0 6 5
11 10 11 6 0 10 -2 10 -4z m2090 -6 c0 -5 -4 -10 -10 -10 -5 0 -10 5 -10 10 0
6 5 10 10 10 6 0 10 -4 10 -10z m4640 -21 c0 -12 -7 -19 -20 -19 -24 0 -38 29
-20 40 19 12 40 1 40 -21z m-7717 1 c-5 -20 -43 -29 -43 -10 0 6 7 10 15 10 8
0 15 5 15 10 0 6 4 10 9 10 5 0 7 -9 4 -20z m1572 10 c3 -5 -1 -10 -10 -10 -9
0 -13 5 -10 10 3 6 8 10 10 10 2 0 7 -4 10 -10z m420 -9 c3 -5 1 -12 -5 -16
-5 -3 -10 1 -10 9 0 18 6 21 15 7z m785 -11 c0 -21 -46 -69 -65 -70 -6 0 -16
-9 -23 -20 -7 -12 -17 -18 -22 -15 -9 6 -14 -8 -11 -27 0 -5 -6 -8 -14 -8 -8
0 -31 -16 -51 -35 -19 -19 -42 -35 -50 -35 -8 0 -14 -7 -14 -15 0 -8 -7 -15
-15 -15 -9 0 -29 -16 -46 -35 -17 -19 -37 -35 -45 -35 -8 0 -18 -8 -21 -17 -9
-26 -43 -53 -65 -53 -10 0 -18 -5 -18 -10 0 -6 -9 -20 -19 -32 -16 -17 -18
-24 -8 -39 16 -26 -5 -39 -50 -32 -19 3 -39 0 -47 -7 -9 -6 -20 -9 -26 -5 -5
3 -10 0 -10 -8 0 -8 -7 -20 -15 -27 -16 -13 -18 -8 -9 28 4 12 13 22 21 22 9
0 32 17 52 38 20 22 53 49 73 61 20 12 40 31 43 42 4 10 10 17 15 14 4 -3 13
2 20 10 7 8 18 15 24 15 6 0 17 9 24 20 7 11 21 20 32 20 11 0 20 5 20 11 0
18 120 129 139 129 6 0 15 9 21 20 6 11 15 20 21 20 5 0 24 16 42 35 17 19 37
35 44 35 7 0 17 9 23 20 14 26 30 26 30 0z m-570 -10 c0 -5 -2 -10 -4 -10 -3
0 -8 5 -11 10 -3 6 -1 10 4 10 6 0 11 -4 11 -10z m2260 0 c0 -5 -8 -10 -17
-10 -15 0 -16 2 -3 10 19 12 20 12 20 0z m-2000 -10 c0 -5 -5 -10 -11 -10 -5
0 -7 5 -4 10 3 6 8 10 11 10 2 0 4 -4 4 -10z m-1110 -10 c0 -5 -4 -10 -10 -10
-5 0 -10 5 -10 10 0 6 5 10 10 10 6 0 10 -4 10 -10z m620 0 c0 -5 -4 -10 -10
-10 -5 0 -10 5 -10 10 0 6 5 10 10 10 6 0 10 -4 10 -10z m-1250 -10 c0 -5 -4
-10 -10 -10 -5 0 -10 5 -10 10 0 6 5 10 10 10 6 0 10 -4 10 -10z m1055 0 c3
-5 2 -10 -4 -10 -5 0 -13 5 -16 10 -3 6 -2 10 4 10 5 0 13 -4 16 -10z m-1452
-6 c11 -11 -3 -24 -18 -18 -8 4 -12 10 -9 15 6 11 18 12 27 3z m1354 -10 c-3
-3 -12 -4 -19 -1 -8 3 -5 6 6 6 11 1 17 -2 13 -5z m348 -4 c3 -5 1 -10 -4 -10
-6 0 -11 5 -11 10 0 6 2 10 4 10 3 0 8 -4 11 -10z m1420 0 c3 -5 -1 -10 -9
-10 -9 0 -16 5 -16 10 0 6 4 10 9 10 6 0 13 -4 16 -10z m-1510 -10 c3 -5 1
-10 -4 -10 -6 0 -11 5 -11 10 0 6 2 10 4 10 3 0 8 -4 11 -10z m501 -2 c10 -15
-23 -37 -46 -31 -11 3 -20 14 -20 24 0 14 7 19 29 19 17 0 33 -5 37 -12z m154
2 c0 -5 -4 -10 -10 -10 -5 0 -10 5 -10 10 0 6 5 10 10 10 6 0 10 -4 10 -10z
m-1285 -10 c3 -5 -1 -10 -10 -10 -9 0 -13 5 -10 10 3 6 8 10 10 10 2 0 7 -4
10 -10z m153 -8 c3 -9 -3 -13 -19 -10 -12 1 -24 9 -27 16 -3 9 3 13 19 10 12
-1 24 -9 27 -16z m149 -8 c-9 -9 -28 6 -21 18 4 6 10 6 17 -1 6 -6 8 -13 4
-17z m2023 11 c0 -9 -7 -18 -16 -22 -18 -7 -39 11 -30 26 11 17 46 13 46 -4z
m3095 -5 c3 -5 -1 -10 -10 -10 -9 0 -13 5 -10 10 3 6 8 10 10 10 2 0 7 -4 10
-10z m-6325 -10 c0 -5 -4 -10 -10 -10 -5 0 -10 5 -10 10 0 6 5 10 10 10 6 0
10 -4 10 -10z m620 0 c0 -5 -4 -10 -10 -10 -5 0 -10 5 -10 10 0 6 5 10 10 10
6 0 10 -4 10 -10z m970 -10 c0 -5 -4 -10 -10 -10 -5 0 -10 5 -10 10 0 6 5 10
10 10 6 0 10 -4 10 -10z m1170 1 c0 -16 -18 -22 -45 -15 -37 9 -31 24 10 24
19 0 35 -4 35 -9z m-4380 -10 c0 -6 -4 -12 -9 -15 -13 -8 -42 4 -35 15 7 12
44 12 44 0z m3034 -12 c-3 -5 -10 -7 -15 -3 -5 3 -7 10 -3 15 3 5 10 7 15 3 5
-3 7 -10 3 -15z m211 11 c3 -5 1 -10 -4 -10 -6 0 -11 5 -11 10 0 6 2 10 4 10
3 0 8 -4 11 -10z m55 -4 c0 -11 -19 -15 -25 -6 -3 5 1 10 9 10 9 0 16 -2 16
-4z m-900 -26 c-19 -12 -30 -12 -30 -1 0 10 31 20 40 14 2 -2 -2 -8 -10 -13z
m-1400 0 c0 -5 -2 -10 -4 -10 -3 0 -8 5 -11 10 -3 6 -1 10 4 10 6 0 11 -4 11
-10z m2000 -6 c0 -8 -4 -12 -10 -9 -5 3 -10 10 -10 16 0 5 5 9 10 9 6 0 10 -7
10 -16z m-1860 -13 c-14 -27 -49 -36 -67 -18 -22 22 -7 37 38 37 36 0 39 -2
29 -19z m8100 -7 c12 -12 12 -16 -2 -30 -28 -29 -106 5 -92 40 5 14 14 16 43
11 20 -3 43 -13 51 -21z m-590 -5 c0 -16 -31 -22 -43 -10 -9 9 -9 14 2 20 16
10 41 4 41 -10z m-12134 -24 c-6 -18 -36 -20 -36 -4 0 16 34 40 38 28 2 -5 1
-16 -2 -24z m1112 10 c3 -25 -17 -56 -25 -37 -2 6 -16 12 -29 12 -17 0 -24 6
-24 18 0 27 10 33 45 30 21 -2 31 -9 33 -23z m1422 11 c0 -20 -19 -31 -32 -18
-6 6 -7 15 -4 21 10 16 36 13 36 -3z m5170 4 c0 -5 -4 -10 -9 -10 -6 0 -13 5
-16 10 -3 6 1 10 9 10 9 0 16 -4 16 -10z m-7618 -45 c-7 -25 -9 -26 -15 -11
-9 23 2 61 14 49 5 -5 5 -22 1 -38z m2622 24 c-7 -11 -34 -12 -34 -1 0 14 11
21 26 15 8 -3 11 -9 8 -14z m4763 -1 c-3 -8 -6 -5 -6 6 -1 11 2 17 5 13 3 -3
4 -12 1 -19z m-7288 -9 c-16 -10 -23 -4 -14 10 3 6 11 8 17 5 6 -4 5 -9 -3
-15z m1002 -15 c-9 -28 -9 -29 -10 -3 -1 14 2 29 6 32 11 12 13 2 4 -29z
m5207 11 c15 -32 15 -35 2 -35 -5 0 -10 9 -10 20 0 11 -7 20 -15 20 -8 0 -15
5 -15 10 0 20 27 9 38 -15z m322 15 c0 -5 -4 -10 -10 -10 -5 0 -10 5 -10 10 0
6 5 10 10 10 6 0 10 -4 10 -10z m-2040 -10 c0 -5 -5 -10 -11 -10 -5 0 -7 5 -4
10 3 6 8 10 11 10 2 0 4 -4 4 -10z m1812 -7 c22 -20 23 -33 3 -33 -8 0 -15 5
-15 11 0 7 -8 18 -17 25 -14 10 -15 13 -4 14 8 0 23 -7 33 -17z m-6242 -3 c0
-5 -4 -10 -10 -10 -5 0 -10 5 -10 10 0 6 5 10 10 10 6 0 10 -4 10 -10z m1054
-15 c4 -10 -1 -15 -14 -15 -20 0 -26 11 -13 23 10 11 20 8 27 -8z m2494 3 c-7
-19 -38 -22 -38 -4 0 10 9 16 21 16 12 0 19 -5 17 -12z m-3498 -7 c0 -6 -4
-13 -10 -16 -5 -3 -10 1 -10 9 0 9 5 16 10 16 6 0 10 -4 10 -9z m30 -22 c-6
-11 -15 -17 -20 -14 -6 4 -5 14 2 25 16 24 31 15 18 -11z m10966 20 c10 -17
-13 -36 -27 -22 -12 12 -4 33 11 33 5 0 12 -5 16 -11z m-10266 -21 c0 -19 -18
-43 -25 -36 -9 9 4 48 16 48 5 0 9 -6 9 -12z m78 -11 c2 -12 -1 -15 -12 -11
-19 7 -22 38 -3 32 6 -3 13 -12 15 -21z m-725 -18 c-17 -17 -37 -1 -22 17 8
10 15 12 23 4 7 -7 7 -13 -1 -21z m4517 21 c22 -14 0 -44 -34 -48 -34 -4 -47
25 -21 44 22 16 34 17 55 4z m1045 1 c7 -12 -12 -24 -25 -16 -11 7 -4 25 10
25 5 0 11 -4 15 -9z m930 -11 c0 -22 -29 -18 -33 3 -3 14 1 18 15 15 10 -2 18
-10 18 -18z m51 -17 c-10 -10 -19 5 -10 18 6 11 8 11 12 0 2 -7 1 -15 -2 -18z
m-6490 2 c4 -8 10 -12 15 -9 5 3 12 -2 15 -10 3 -9 10 -14 14 -11 11 7 100
-36 100 -47 0 -4 8 -8 18 -8 15 -1 15 -2 -2 -15 -22 -16 -51 -20 -42 -6 3 5
-8 11 -25 15 -17 3 -28 10 -24 16 4 6 -4 10 -19 10 -13 0 -31 7 -40 15 -8 8
-19 15 -25 15 -11 0 -91 -41 -329 -169 -84 -45 -158 -81 -164 -79 -6 2 65 44
158 92 220 116 303 165 315 187 12 23 28 24 35 4z m5694 2 c0 -16 -20 -37 -36
-37 -14 0 -27 28 -18 41 8 14 54 11 54 -4z m-5143 -23 c38 -26 38 -27 8 -20
-28 6 -28 5 10 -19 46 -29 42 -33 -10 -8 -19 9 -35 22 -35 29 0 6 -9 14 -21
17 -12 3 -18 10 -14 16 9 16 20 14 62 -15z m73 7 c0 -5 10 -11 22 -14 12 -4
19 -9 16 -12 -6 -6 -68 21 -68 30 0 3 7 5 15 5 8 0 15 -4 15 -9z m12200 0 c0
-5 -7 -11 -15 -15 -9 -3 -15 0 -15 9 0 8 7 15 15 15 8 0 15 -4 15 -9z m-7630
-16 c11 -13 8 -15 -19 -15 -21 0 -31 5 -31 15 0 8 8 15 19 15 10 0 24 -7 31
-15z m641 -5 c15 0 10 -36 -6 -50 -18 -15 -65 -5 -65 14 0 21 30 48 47 42 8
-3 19 -6 24 -6z m-3576 -11 c10 -15 -1 -23 -20 -15 -9 3 -13 10 -10 16 8 13
22 13 30 -1z m-1788 -5 c-3 -3 -12 -4 -19 -1 -8 3 -5 6 6 6 11 1 17 -2 13 -5z
m9353 -4 c0 -5 -7 -10 -15 -10 -8 0 -15 5 -15 10 0 6 7 10 15 10 8 0 15 -4 15
-10z m-9175 -20 c17 -11 27 -20 24 -20 -9 0 -69 31 -69 36 0 9 16 3 45 -16z
m5753 -3 c2 -12 -3 -17 -17 -17 -12 0 -21 6 -21 13 0 31 32 34 38 4z m1574
-19 c-7 -7 -12 -8 -12 -2 0 14 12 26 19 19 2 -3 -1 -11 -7 -17z m3225 6 c3 -9
0 -20 -8 -25 -19 -12 -22 -11 -45 6 -16 13 -17 16 -4 25 23 15 50 12 57 -6z
m-10817 -9 c14 -8 40 -14 58 -15 31 0 179 -66 170 -76 -3 -2 -37 13 -75 33
-67 35 -74 37 -119 27 -41 -8 -55 -6 -84 9 -19 10 -26 16 -15 13 75 -18 72
-18 48 -5 -13 7 -23 16 -23 21 0 11 11 10 40 -7z m281 -10 c24 -14 40 -25 36
-25 -11 0 -87 39 -87 45 0 8 7 6 51 -20z m569 16 c0 -12 -29 -23 -41 -15 -5 3
-7 10 -4 15 8 12 45 12 45 0z m3550 -1 c0 -5 -4 -10 -10 -10 -5 0 -10 5 -10
10 0 6 5 10 10 10 6 0 10 -4 10 -10z m7450 0 c0 -5 -4 -10 -10 -10 -5 0 -10 5
-10 10 0 6 5 10 10 10 6 0 10 -4 10 -10z m-11509 -16 c17 -8 29 -18 26 -20 -3
-3 -20 4 -38 15 -40 25 -31 28 12 5z m-144 -15 c25 -11 43 -23 40 -25 -3 -3
-27 6 -54 20 -58 30 -50 34 14 5z m257 -8 c3 -5 -1 -26 -8 -47 -8 -22 -15 -34
-15 -27 -1 6 4 24 10 39 9 24 7 31 -13 47 -22 18 -22 18 -1 8 12 -6 24 -15 27
-20z m11476 -6 c-6 -15 -13 -25 -17 -21 -3 3 0 17 7 31 17 32 24 26 10 -10z
m-9830 20 c0 -6 -56 -35 -67 -35 -4 0 6 9 22 20 29 19 45 25 45 15z m7620 -20
c0 -8 -4 -15 -9 -15 -13 0 -22 16 -14 24 11 11 23 6 23 -9z m-9199 -18 c-10
-9 -11 -8 -5 6 3 10 9 15 12 12 3 -3 0 -11 -7 -18z m-186 -48 c-8 -19 -13 -25
-9 -14 3 11 8 34 12 50 3 17 8 23 10 14 1 -9 -4 -32 -13 -50z m12088 46 c-3
-9 -8 -14 -10 -11 -3 3 -2 9 2 15 9 16 15 13 8 -4z m-12375 -7 c-4 -11 -108
-30 -108 -21 0 2 15 9 33 17 41 18 80 20 75 4z m236 -3 c11 -8 18 -17 15 -19
-2 -2 -15 4 -28 15 -27 22 -15 26 13 4z m107 -12 c-12 -20 -14 -14 -5 12 4 9
9 14 11 11 3 -2 0 -13 -6 -23z m9149 17 c0 -5 -5 -10 -11 -10 -5 0 -7 5 -4 10
3 6 8 10 11 10 2 0 4 -4 4 -10z m-327 -15 c-4 -15 -36 -12 -41 3 -3 9 3 13 19
10 13 -1 23 -7 22 -13z m2412 -14 c-8 -17 -21 -33 -27 -37 -8 -5 -7 1 3 16 8
14 19 31 23 38 15 25 16 11 1 -17z m305 -1 c-6 -12 -14 -20 -17 -17 -2 3 1 14
8 26 17 26 24 19 9 -9z m-12397 13 c-7 -2 -19 -2 -25 0 -7 3 -2 5 12 5 14 0
19 -2 13 -5z m-77 -22 c-4 -5 -1 -11 4 -13 7 -2 4 -19 -8 -47 -22 -48 -37 -41
-21 10 6 19 12 40 15 47 2 6 6 12 9 12 4 0 4 -4 1 -9z m51 3 c-3 -3 -12 -4
-19 -1 -8 3 -5 6 6 6 11 1 17 -2 13 -5z m56 -16 c-11 -13 -26 -40 -33 -61 -6
-21 -14 -36 -17 -33 -3 3 2 23 11 46 9 22 12 40 8 40 -10 1 30 30 42 30 5 0 0
-10 -11 -22z m687 -9 c-14 -26 -18 -24 -12 6 2 14 8 22 13 19 5 -3 5 -14 -1
-25z m36 -4 c0 -14 -4 -25 -8 -25 -10 0 -10 13 -2 34 9 23 12 20 10 -9z m94
10 c0 -8 -4 -15 -10 -15 -5 0 -7 7 -4 15 4 8 8 15 10 15 2 0 4 -7 4 -15z
m8441 -3 c-12 -22 -50 -57 -56 -50 -5 4 53 68 62 68 2 0 -1 -8 -6 -18z m2549
8 c0 -5 -7 -10 -15 -10 -8 0 -15 5 -15 10 0 6 7 10 15 10 8 0 15 -4 15 -10z
m-11955 -37 c-9 -20 -18 -39 -21 -42 -9 -10 8 53 19 67 17 21 18 13 2 -25z
m240 27 c3 -5 -3 -10 -14 -10 -12 0 -21 5 -21 10 0 6 6 10 14 10 8 0 18 -4 21
-10z m-146 -39 c-6 -18 -13 -30 -15 -28 -2 2 1 18 7 36 6 18 13 30 15 28 2 -2
-1 -18 -7 -36z m363 14 c-2 -14 -9 -28 -15 -32 -7 -4 -8 0 -4 11 4 10 7 24 7
32 0 8 4 14 9 14 4 0 6 -11 3 -25z m12015 0 c-23 -21 -31 -23 -51 -13 -39 17
-21 38 33 38 l46 -1 -28 -24z m-11969 -3 c2 -7 -3 -12 -12 -12 -9 0 -16 7 -16
16 0 17 22 14 28 -4z m9537 -1 c7 -12 -12 -24 -25 -16 -11 7 -4 25 10 25 5 0
11 -4 15 -9z m-1907 -13 c-7 -19 -38 -22 -38 -4 0 10 9 16 21 16 12 0 19 -5
17 -12z m182 -3 c-12 -15 -30 -12 -30 6 0 5 10 9 21 9 18 0 19 -2 9 -15z
m4210 5 c0 -5 -4 -10 -9 -10 -6 0 -13 5 -16 10 -3 6 1 10 9 10 9 0 16 -4 16
-10z m-12009 -36 c-9 -28 -9 -29 -10 -3 -1 14 2 29 6 32 11 12 13 2 4 -29z
m10169 27 c0 -5 -7 -12 -16 -15 -22 -9 -24 -8 -24 9 0 8 9 15 20 15 11 0 20
-4 20 -9z m640 -17 c0 -8 -10 -14 -25 -14 -23 0 -34 18 -19 32 10 10 44 -4 44
-18z m555 -4 c0 -8 -12 -17 -27 -21 -22 -6 -28 -3 -34 13 -3 12 -1 24 7 28 16
11 54 -4 54 -20z m169 5 c-9 -14 -21 -25 -26 -25 -5 0 -2 7 6 16 9 8 16 20 16
25 0 5 5 9 10 9 6 0 3 -11 -6 -25z m230 2 c-3 -8 -12 -18 -20 -21 -15 -6 -11
7 11 30 13 15 17 11 9 -9z m-12036 -26 c-14 -20 -16 -20 -29 -5 -11 14 -10 18
6 30 26 19 42 2 23 -25z m5391 13 c45 -14 85 -32 88 -40 3 -8 14 -14 24 -14
38 0 15 -32 -32 -43 -14 -4 -36 -16 -49 -27 -28 -24 -68 -26 -77 -3 -4 9 1 29
10 45 16 28 16 29 -16 48 -18 11 -38 20 -44 20 -7 0 -13 9 -13 20 0 26 10 25
109 -6z m-5482 -6 c-3 -8 -6 -5 -6 6 -1 11 2 17 5 13 3 -3 4 -12 1 -19z m213
7 c-7 -8 -16 -12 -21 -9 -13 8 -1 24 18 24 13 0 13 -3 3 -15z m435 5 c3 -6 -1
-13 -10 -16 -19 -8 -30 0 -20 15 8 14 22 14 30 1z m8833 -7 c5 -18 -23 -16
-39 3 -11 14 -10 15 11 12 13 -1 25 -9 28 -15z m-9212 -12 c-10 -11 -15 -25
-10 -32 4 -8 3 -10 -4 -5 -9 6 -10 28 -3 54 1 1 8 2 18 2 15 0 15 -2 -1 -19z
m6489 9 c3 -5 -3 -10 -14 -10 -13 0 -21 -7 -21 -17 -1 -20 -33 -63 -47 -63
-20 0 -63 -26 -63 -37 0 -7 -4 -13 -10 -13 -5 0 -10 -8 -10 -19 0 -10 -8 -29
-18 -42 -10 -13 -21 -32 -25 -41 -9 -25 -54 -33 -87 -17 l-28 14 53 59 c46 51
57 58 79 52 22 -5 26 -3 26 17 0 12 9 29 20 37 11 8 20 22 20 30 0 24 21 40
51 40 15 0 31 5 34 10 3 6 12 10 20 10 8 0 17 -4 20 -10z m1915 0 c0 -5 -4
-10 -9 -10 -6 0 -13 5 -16 10 -3 6 1 10 9 10 9 0 16 -4 16 -10z m3401 -5 c-1
-15 -24 -12 -29 3 -3 9 2 13 12 10 10 -1 17 -7 17 -13z m96 -21 c-23 -52 -59
-104 -68 -99 -7 5 21 57 63 117 17 25 20 15 5 -18z m-12311 8 c-8 -13 6 -26
59 -52 53 -27 122 -70 111 -70 -6 0 -188 88 -193 94 -6 6 9 36 19 36 5 0 7 -4
4 -8z m11040 -3 c7 -12 -15 -31 -28 -23 -4 3 -8 12 -8 20 0 17 26 19 36 3z
m1395 -21 c-68 -123 -74 -130 -81 -117 -6 8 8 37 38 81 49 70 75 92 43 36z
m81 -70 c-21 -40 -46 -74 -55 -76 -20 -4 -22 11 -4 30 23 26 57 77 57 88 0 6
7 13 15 16 8 4 16 16 16 28 1 16 2 17 6 4 2 -9 -13 -50 -35 -90z m-12565 70
c-3 -8 -6 -5 -6 6 -1 11 2 17 5 13 3 -3 4 -12 1 -19z m608 12 c3 -5 -3 -10
-15 -10 -12 0 -18 5 -15 10 3 6 10 10 15 10 5 0 12 -4 15 -10z m330 0 c-3 -5
-10 -10 -16 -10 -5 0 -9 5 -9 10 0 6 7 10 16 10 8 0 12 -4 9 -10z m-30 -30 c3
-5 -1 -10 -10 -10 -9 0 -13 5 -10 10 3 6 8 10 10 10 2 0 7 -4 10 -10z m125 1
c0 -5 -7 -14 -15 -21 -18 -15 -42 1 -31 19 8 13 46 15 46 2z m6955 -1 c-3 -5
-11 -10 -16 -10 -6 0 -7 5 -4 10 3 6 11 10 16 10 6 0 7 -4 4 -10z m4015 0 c0
-5 -4 -10 -10 -10 -5 0 -10 5 -10 10 0 6 5 10 10 10 6 0 10 -4 10 -10z m-6135
-21 c5 -5 19 -9 32 -9 14 0 23 -6 23 -15 0 -11 11 -15 39 -15 27 0 44 -6 53
-18 7 -10 26 -22 41 -26 15 -3 25 -11 22 -16 -3 -6 5 -10 18 -10 14 0 28 -7
31 -16 6 -14 0 -16 -35 -11 -23 3 -46 11 -50 19 -6 9 -9 2 -9 -19 0 -22 -8
-38 -26 -52 -34 -26 -50 -26 -64 0 -16 29 -8 63 18 74 12 5 22 14 22 19 0 5
-3 6 -7 3 -3 -4 -17 2 -29 14 -12 11 -40 23 -62 26 -43 6 -89 43 -77 63 7 11
43 5 60 -11z m4070 11 c3 -5 1 -10 -4 -10 -6 0 -11 5 -11 10 0 6 2 10 4 10 3
0 8 -4 11 -10z m963 -22 c19 -19 14 -28 -18 -28 -18 0 -30 5 -30 13 0 28 27
36 48 15z m-7398 -7 c0 -6 -4 -13 -10 -16 -5 -3 -10 1 -10 9 0 9 5 16 10 16 6
0 10 -4 10 -9z m8110 -11 c0 -5 -4 -10 -9 -10 -6 0 -13 5 -16 10 -3 6 1 10 9
10 9 0 16 -4 16 -10z m-10472 -27 c-4 -22 -58 -31 -58 -10 0 20 10 27 37 27
18 0 24 -5 21 -17z m7521 8 c9 -6 11 -18 7 -35 -5 -21 -12 -26 -35 -26 -16 0
-36 -3 -44 -6 -18 -7 -30 45 -15 64 12 14 66 16 87 3z m-8999 -25 c0 -14 -21
-26 -46 -26 -12 0 -12 4 -4 20 12 23 50 27 50 6z m12150 -1 c0 -12 -28 -35
-44 -35 -8 0 -7 35 1 43 12 13 43 7 43 -8z m1025 -5 c3 -5 -1 -10 -10 -10 -9
0 -13 5 -10 10 3 6 8 10 10 10 2 0 7 -4 10 -10z m-5075 -30 c0 -5 -4 -10 -10
-10 -5 0 -10 5 -10 10 0 6 5 10 10 10 6 0 10 -4 10 -10z m1485 0 c3 -5 1 -10
-4 -10 -6 0 -11 5 -11 10 0 6 2 10 4 10 3 0 8 -4 11 -10z m130 0 c8 -13 -20
-24 -41 -16 -20 8 -9 26 16 26 10 0 22 -5 25 -10z m672 4 c-3 -3 -12 -4 -19
-1 -8 3 -5 6 6 6 11 1 17 -2 13 -5z m-6017 -29 c0 -15 -6 -25 -14 -25 -16 0
-25 19 -18 38 8 22 32 13 32 -13z m8755 5 c3 -5 1 -10 -4 -10 -6 0 -11 5 -11
10 0 6 2 10 4 10 3 0 8 -4 11 -10z m-9915 -10 c0 -5 -5 -10 -11 -10 -5 0 -7 5
-4 10 3 6 8 10 11 10 2 0 4 -4 4 -10z m-1362 -27 c-4 -22 -48 -31 -48 -10 0
19 10 27 32 27 13 0 18 -6 16 -17z m2300 -16 c2 -11 -3 -17 -17 -17 -25 0 -38
19 -20 31 19 12 33 6 37 -14z m2415 16 c-13 -2 -23 -8 -23 -13 0 -5 -7 -7 -15
-4 -24 10 -6 24 28 23 24 -1 26 -3 10 -6z m6277 -50 c0 -15 -46 -18 -55 -3 -4
6 -4 17 -1 25 4 12 10 13 31 3 14 -6 25 -17 25 -25z m-6170 7 c0 -5 -11 -10
-25 -10 -14 0 -25 5 -25 10 0 6 11 10 25 10 14 0 25 -4 25 -10z m2000 0 c0 -5
-2 -10 -4 -10 -3 0 -8 5 -11 10 -3 6 -1 10 4 10 6 0 11 -4 11 -10z m468 -12
c-3 -25 -34 -36 -51 -19 -14 14 9 41 35 41 14 0 19 -6 16 -22z m-6968 3 c0 -6
-5 -13 -10 -16 -15 -9 -43 3 -35 15 8 13 45 13 45 1z m10850 -11 c0 -11 5 -20
10 -20 6 0 1 -9 -11 -21 -28 -28 -43 -13 -28 29 12 36 29 43 29 12z m-6120
-11 c0 -6 7 -9 15 -5 25 9 17 -7 -26 -52 -31 -34 -46 -42 -62 -38 -36 9 -45
20 -49 50 -3 28 0 30 47 42 66 16 75 16 75 3z m5163 5 c12 -12 -6 -34 -29 -34
-23 0 -32 18 -17 33 8 9 38 9 46 1z m-5332 -30 c7 -8 9 -18 5 -21 -4 -4 -11
-2 -15 5 -4 7 -14 12 -21 10 -8 -2 -15 5 -17 14 -3 12 1 15 16 11 11 -3 26
-12 32 -19z m2629 5 c0 -5 -7 -9 -15 -9 -15 0 -20 12 -9 23 8 8 24 -1 24 -14z
m-3190 -9 c0 -11 -7 -20 -15 -20 -18 0 -19 6 -2 25 16 19 17 18 17 -5z m6970
5 c0 -8 -7 -15 -15 -15 -8 0 -15 7 -15 15 0 8 7 15 15 15 8 0 15 -7 15 -15z
m263 -47 c9 -21 22 -38 27 -38 6 0 10 -7 10 -15 0 -26 -15 -18 -98 51 -30 25
-22 46 16 42 20 -2 32 -13 45 -40z m-7128 22 c7 -11 -39 -25 -54 -15 -6 3 -11
10 -11 16 0 12 57 12 65 -1z m7037 -34 c4 -6 5 -13 2 -15 -3 -3 -8 -1 -12 5
-4 6 -16 16 -27 23 -18 11 -18 11 5 5 14 -4 28 -12 32 -18z m-11546 -11 c10
-39 -12 -56 -65 -53 -33 2 -47 8 -49 20 -5 25 37 58 75 58 27 0 34 -5 39 -25z
m4655 -5 c15 -11 38 -22 52 -25 14 -4 28 -13 31 -21 3 -8 19 -14 38 -14 49 0
125 -40 120 -63 -4 -18 2 -19 85 -13 48 3 103 5 121 6 22 0 32 5 32 15 0 8 8
15 19 15 13 0 20 -9 23 -30 4 -27 2 -30 -24 -30 -17 0 -28 -5 -28 -13 0 -20
-68 -87 -88 -87 -25 0 -89 46 -97 69 -7 24 -47 32 -71 14 -10 -7 -35 -13 -57
-13 -44 0 -76 29 -77 69 0 29 -26 50 -61 51 -15 0 -32 6 -38 14 -7 8 -23 17
-36 20 -14 4 -25 13 -25 21 0 10 -10 15 -30 15 -30 0 -41 14 -17 23 23 10 102
-5 128 -23z m1433 -41 c-8 -14 -44 -10 -44 4 0 7 6 19 12 25 10 10 15 9 25 -4
7 -9 10 -21 7 -25z m4006 21 c0 -5 -5 -10 -11 -10 -5 0 -7 5 -4 10 3 6 8 10
11 10 2 0 4 -4 4 -10z m-4870 -72 c0 -36 -4 -35 -14 5 -4 16 -2 27 4 27 5 0
10 -14 10 -32z m1687 11 c32 -32 -24 -69 -71 -48 -23 11 -24 13 -9 35 16 26
60 33 80 13z m-118 -28 c9 -6 10 -10 2 -16 -15 -8 -41 1 -41 15 0 12 20 13 39
1z m-2385 -30 c3 -5 -5 -11 -19 -13 -20 -4 -23 -3 -14 8 13 16 25 18 33 5z
m61 -1 c3 -5 1 -10 -4 -10 -6 0 -11 5 -11 10 0 6 2 10 4 10 3 0 8 -4 11 -10z
m6469 1 c3 -4 -6 -6 -19 -3 -14 2 -25 6 -25 8 0 8 39 4 44 -5z m-4414 -21 c0
-5 -4 -10 -10 -10 -5 0 -10 5 -10 10 0 6 5 10 10 10 6 0 10 -4 10 -10z m550
-5 c0 -8 -9 -15 -20 -15 -11 0 -20 7 -20 15 0 8 9 15 20 15 11 0 20 -7 20 -15z
m-4770 -25 c0 -5 -4 -10 -10 -10 -5 0 -10 5 -10 10 0 6 5 10 10 10 6 0 10 -4
10 -10z m1374 -116 c3 -9 10 -12 16 -9 15 10 12 -11 -4 -24 -8 -7 -27 -11 -43
-9 -22 2 -29 9 -31 30 -2 19 2 27 15 30 24 6 40 -1 47 -18z m3916 -79 c19 -23
4 -47 -27 -43 -31 3 -44 35 -21 49 19 13 34 11 48 -6z m2615 -149 c27 -12 35
-21 35 -41 0 -38 -43 -52 -92 -30 -33 14 -17 81 20 85 1 0 18 -7 37 -14z
m-2800 -106 c-3 -5 -13 -10 -21 -10 -8 0 -14 5 -14 10 0 6 9 10 21 10 11 0 17
-4 14 -10z m3645 -140 c0 -5 -4 -10 -10 -10 -5 0 -10 -9 -10 -20 0 -16 -7 -20
-30 -20 -25 0 -30 4 -30 23 0 13 3 27 7 30 10 11 73 8 73 -3z m-2112 -62 c-2
-15 -11 -24 -25 -26 -19 -3 -23 1 -23 22 0 21 5 26 26 26 21 0 25 -4 22 -22z
m-8907 -48 c14 0 19 -7 19 -30 0 -26 -4 -30 -28 -30 -38 0 -59 39 -34 64 10 9
18 12 20 6 2 -5 12 -10 23 -10z m5032 -57 c2 -21 0 -44 -6 -50 -22 -29 -77 -5
-77 33 0 25 30 54 55 54 19 0 24 -7 28 -37z m5647 -145 c0 -38 -1 -39 -32 -36
-29 3 -33 7 -36 37 -3 28 -1 33 13 27 9 -3 14 -2 10 3 -3 5 1 11 7 14 26 9 38
-6 38 -45z m475 -18 c4 -6 11 -8 16 -4 11 7 8 -16 -5 -31 -5 -5 -23 -10 -40
-10 -26 0 -31 4 -34 28 -3 24 0 27 27 27 16 0 33 -5 36 -10z m-6221 -42 c19
-10 19 -35 0 -150 -6 -34 -4 -38 15 -38 18 0 21 -6 21 -40 0 -61 -20 -96 -52
-91 -5 0 -8 -8 -8 -19 0 -15 -7 -20 -25 -20 -14 0 -25 -4 -25 -9 0 -5 -27 -14
-59 -22 -40 -8 -57 -17 -54 -25 3 -8 -6 -16 -21 -20 -28 -7 -32 -20 -15 -56
14 -31 -4 -78 -29 -78 -27 0 -64 -36 -60 -57 3 -13 12 -17 34 -16 25 2 33 -3
42 -23 15 -32 15 -54 1 -54 -7 0 -9 -9 -5 -24 7 -28 -6 -32 -94 -31 -36 0 -55
4 -56 13 -1 6 -2 17 -3 22 0 6 -10 10 -21 10 -11 0 -20 7 -20 15 0 8 -7 15
-16 15 -24 0 -75 64 -73 92 0 10 2 10 6 1 3 -10 8 -9 20 2 8 8 19 12 25 9 7
-5 8 -2 3 6 -5 8 0 19 13 29 12 9 27 39 34 66 7 28 15 52 19 55 3 3 8 13 12
23 5 12 17 17 48 17 39 0 41 2 37 25 -4 18 -1 25 11 25 20 0 51 34 52 58 0 11
2 12 6 4 7 -18 33 4 33 29 0 11 7 19 15 19 8 0 15 9 15 19 0 10 7 22 16 25 15
6 16 18 10 91 l-6 85 32 20 c34 20 80 19 122 -2z m-79 -491 c10 -11 10 -18 1
-36 l-12 -22 -12 26 c-18 38 -3 58 23 32z m-80 -127 c-3 -5 -12 -10 -18 -10
-7 0 -6 4 3 10 19 12 23 12 15 0z m6120 -211 c5 -5 17 -9 27 -9 10 0 18 -4 18
-10 0 -5 18 -10 40 -10 38 0 54 -13 28 -23 -7 -3 2 -8 20 -12 17 -4 32 -11 32
-16 0 -5 18 -9 40 -9 22 0 40 -3 40 -7 0 -9 48 -33 66 -33 6 0 14 -9 17 -20 4
-17 14 -20 56 -20 44 0 51 -3 51 -20 0 -10 6 -25 13 -32 12 -10 12 -15 0 -26
-15 -15 -127 -7 -117 9 3 5 -2 9 -10 9 -9 0 -41 12 -71 26 -41 18 -65 23 -86
19 -20 -5 -36 -2 -47 8 -9 7 -38 20 -64 27 -27 7 -45 17 -41 23 3 6 -6 8 -26
5 -25 -4 -31 -1 -31 14 0 10 -7 18 -15 18 -8 0 -15 5 -15 10 0 6 -9 10 -20 10
-11 0 -20 5 -20 10 0 6 -9 10 -21 10 -31 0 -22 52 11 61 30 9 111 1 125 -12z
m-5067 -13 c13 -12 20 -112 9 -123 -13 -12 -92 -24 -95 -14 -2 6 -12 11 -22
11 -46 0 -59 123 -15 141 27 12 106 2 123 -15z m-6947 -88 c1 -13 2 -27 4 -33
1 -5 3 -20 3 -32 1 -14 9 -23 18 -23 31 0 44 -27 44 -89 0 -34 -4 -61 -9 -61
-5 0 -13 -9 -16 -20 -3 -11 -12 -20 -20 -20 -7 0 -21 -24 -30 -55 -10 -30 -22
-55 -26 -55 -5 0 -9 -7 -9 -15 0 -8 -9 -19 -21 -25 -11 -7 -18 -14 -16 -17 3
-3 -7 -17 -23 -33 -24 -24 -41 -29 -130 -40 -55 -8 -103 -17 -106 -22 -3 -4
-15 -8 -27 -8 -16 0 -18 -3 -9 -9 10 -6 6 -13 -15 -27 -41 -27 -73 -44 -73
-37 0 3 -8 -3 -18 -15 -10 -12 -38 -25 -62 -31 -23 -5 -46 -13 -49 -18 -25
-34 -122 -40 -135 -8 -3 8 -2 53 1 100 5 74 8 85 24 85 11 0 19 5 19 10 0 6 9
10 20 10 11 0 20 4 20 9 0 5 14 22 30 38 17 15 30 37 30 48 1 11 15 29 33 40
28 18 32 26 33 68 2 68 14 137 23 137 4 0 23 14 41 32 20 19 35 27 38 20 6
-19 29 -14 35 8 3 11 12 20 21 20 12 0 16 10 16 39 l0 39 100 -1 c84 -2 100
-5 100 -18 0 -12 7 -14 30 -11 17 2 30 10 30 17 0 13 21 20 63 24 11 1 17 -7
18 -21z m10709 -758 c11 -11 20 -32 20 -46 0 -23 -3 -25 -37 -22 -37 3 -38 4
-35 38 2 28 15 49 30 50 1 0 11 -9 22 -20z m-17 -117 c-7 -2 -19 -2 -25 0 -7
3 -2 5 12 5 14 0 19 -2 13 -5z"/>
<path d="M6265 5946 c-16 -11 -503 -298 -621 -366 -16 -10 -167 -103 -335
-207 -167 -104 -322 -200 -344 -213 -22 -14 -53 -37 -68 -51 -15 -15 -39 -30
-53 -33 -23 -6 -89 -44 -194 -111 -56 -37 -124 -75 -142 -81 -10 -4 -18 -10
-18 -14 0 -4 -8 -11 -17 -14 -47 -17 -95 -55 -87 -68 9 -14 125 -68 148 -68
12 0 32 -9 45 -19 32 -25 39 -21 218 96 29 19 51 38 49 42 -3 4 14 12 37 18
62 17 444 249 1035 629 200 129 373 234 385 234 12 0 108 -29 212 -66 105 -36
379 -130 610 -208 231 -79 488 -167 570 -196 83 -28 247 -82 365 -120 118 -38
269 -87 335 -109 65 -23 127 -41 136 -41 21 0 224 166 224 183 0 11 -89 44
-235 86 -36 11 -144 46 -240 79 -224 77 -741 247 -935 307 -82 26 -226 71
-320 100 -318 100 -724 225 -732 225 -5 0 -17 -6 -28 -14z"/>
<path d="M6170 5603 c-805 -490 -730 -442 -730 -470 0 -17 -6 -23 -21 -23 -12
0 -17 4 -13 11 9 15 -45 -14 -150 -81 -228 -147 -263 -170 -289 -194 -15 -14
-30 -26 -31 -26 -5 0 -113 -64 -183 -109 -29 -18 -53 -39 -53 -46 0 -14 60
-49 123 -71 36 -13 42 -12 85 11 26 13 97 56 157 94 61 39 135 84 165 102 30
18 163 104 295 192 132 89 268 179 303 201 34 23 153 101 264 174 110 72 208
132 217 132 15 0 106 -31 176 -60 45 -19 218 -80 535 -190 157 -54 371 -128
475 -165 770 -270 845 -295 845 -275 0 6 4 9 9 6 4 -3 27 11 50 31 41 34 43
35 39 12 -2 -17 -8 -23 -22 -21 -13 3 -17 -1 -13 -12 3 -8 -1 -20 -9 -27 -19
-16 -11 -21 89 -55 87 -29 84 -29 157 36 19 17 50 43 68 57 17 14 32 29 32 33
0 11 -140 60 -170 60 -24 0 -59 -19 -88 -47 -7 -7 -18 -13 -23 -13 -17 0 -9
25 17 49 13 13 23 28 21 34 -2 6 -106 45 -233 87 -126 42 -267 90 -314 107
-47 17 -128 44 -180 61 -52 17 -248 80 -435 141 -187 60 -482 155 -655 211
-173 56 -325 105 -338 110 -13 6 -28 10 -35 10 -7 -1 -68 -35 -137 -77z"/>
<path d="M6048 5292 c-136 -86 -282 -179 -325 -205 -393 -242 -568 -358 -591
-389 -7 -10 -20 -18 -28 -18 -8 0 -47 -21 -87 -47 -39 -26 -73 -48 -75 -49 -8
-4 12 -34 22 -34 7 0 33 -10 58 -23 36 -18 51 -21 74 -13 31 10 639 413 748
495 37 28 76 56 89 62 31 17 223 142 276 180 69 50 90 55 152 37 53 -16 82
-26 354 -123 72 -26 184 -65 250 -87 133 -44 153 -51 475 -168 172 -62 232
-80 256 -75 26 4 36 1 50 -18 29 -38 455 -186 452 -158 -2 18 3 31 12 31 6 0
8 -10 4 -24 -7 -28 12 -41 115 -76 l62 -22 55 49 c31 26 66 56 77 65 l22 17
-30 11 c-123 48 -195 63 -195 39 0 -5 -5 -7 -11 -4 -6 4 -8 13 -5 20 3 8 -8
19 -27 28 -33 16 -1420 484 -1667 562 -41 14 -122 40 -179 60 -58 19 -112 35
-120 35 -9 0 -127 -71 -263 -158z m2012 -482 c0 -5 -4 -10 -10 -10 -5 0 -10 5
-10 10 0 6 5 10 10 10 6 0 10 -4 10 -10z"/>
<path d="M8544 4649 c-67 -57 -96 -91 -88 -99 9 -8 109 -40 125 -40 9 0 133
108 137 119 1 5 -17 15 -40 24 -84 31 -92 31 -134 -4z"/>
<path d="M4585 4605 c-53 -25 -168 -100 -172 -112 -2 -6 33 -30 79 -52 l82
-41 41 20 c49 24 177 108 187 123 11 17 1 25 -44 32 -23 4 -51 12 -63 18 -64
32 -66 33 -110 12z"/>
<path d="M4815 4498 c-87 -51 -97 -59 -84 -74 18 -21 -4 -42 -25 -24 -17 13
-46 7 -46 -9 0 -10 116 -71 135 -71 5 0 45 22 87 50 56 35 76 53 72 65 -5 11
1 15 20 15 14 0 26 5 26 10 0 6 -9 10 -21 10 -11 0 -18 4 -14 9 8 14 -3 18
-70 25 -39 4 -67 2 -80 -6z"/>
<path d="M5095 4407 c-10 -8 -14 -16 -9 -19 5 -3 17 3 27 14 20 21 9 24 -18 5z"/>
<path d="M4545 4323 c-16 -8 -39 -23 -50 -33 -11 -10 -30 -21 -42 -25 -39 -11
-26 -30 46 -65 l69 -33 44 26 c60 35 128 86 128 95 0 9 -119 52 -145 52 -11
-1 -33 -8 -50 -17z"/>
<path d="M851 6508 c-1 -9 4 -29 9 -44 9 -24 9 -25 -5 -14 -13 11 -15 6 -17
-41 -1 -51 1 -102 5 -105 1 -1 28 4 60 10 l57 10 0 38 c0 21 -4 38 -10 38 -5
0 -10 15 -10 34 0 29 -4 34 -30 40 -17 3 -33 5 -38 5 -4 0 -10 10 -14 23 -4
15 -6 17 -7 6z"/>
<path d="M0 6297 c0 -31 2 -34 22 -29 12 3 17 7 10 10 -6 2 -12 12 -12 22 0
10 -4 22 -10 25 -6 4 -10 -8 -10 -28z"/>
<path d="M13314 4546 c-3 -9 -13 -16 -22 -16 -13 0 -12 -4 5 -22 12 -13 24
-34 26 -48 3 -15 5 -9 3 13 -1 20 2 37 6 37 12 0 10 38 -2 45 -6 3 -13 -1 -16
-9z"/>
<path d="M13383 4530 c-27 -11 -28 -16 -9 -36 23 -22 36 -17 36 16 0 17 -1 30
-2 29 -2 0 -13 -4 -25 -9z"/>
<path d="M13635 4280 c-3 -5 -1 -10 4 -10 6 0 11 5 11 10 0 6 -2 10 -4 10 -3
0 -8 -4 -11 -10z"/>
<path d="M13641 3414 c0 -11 3 -14 6 -6 3 7 2 16 -1 19 -3 4 -6 -2 -5 -13z"/>
</g>
</svg>
