<?xml version="1.0" encoding="UTF-8"?>
<svg width="30px" height="30px" viewBox="0 0 30 30" version="1.1" xmlns="http://www.w3.org/2000/svg" xmlns:xlink="http://www.w3.org/1999/xlink">
    <title>Icons/double-right</title>
    <g id="Icons/double-right" stroke="none" stroke-width="1" fill="none" fill-rule="evenodd">
        <g id="double-right" transform="translate(1.000000, 0.000000)" fill="#238FFB">
            <path d="M12.69,3.29 C12.1392823,2.69898049 12.1555322,1.77798056 12.7267564,1.2067564 C13.2979806,0.635532248 14.2189805,0.619282279 14.81,1.17 L27.53,13.89 C28.1167232,14.5137013 28.1167232,15.4862987 27.53,16.11 L14.81,28.83 C14.2189805,29.3807177 13.2979806,29.3644678 12.7267564,28.7932436 C12.1555322,28.2220194 12.1392823,27.3010195 12.69,26.71 L23.89,15.5 C24.0243772,15.3683377 24.1001021,15.1881281 24.1001021,15 C24.1001021,14.8118719 24.0243772,14.6316623 23.89,14.5 L12.69,3.29 Z M11.69,14.5 C11.8243772,14.6316623 11.9001021,14.8118719 11.9001021,15 C11.9001021,15.1881281 11.8243772,15.3683377 11.69,15.5 L0.47,26.71 C-0.109457467,27.2978798 -0.109457467,28.2421202 0.47,28.83 C0.749933882,29.1133721 1.13167514,29.272861 1.53,29.272861 C1.92832486,29.272861 2.31006612,29.1133721 2.59,28.83 L15.32,16.11 C15.6156029,15.818602 15.7721502,15.4144915 15.75,15 C15.7721502,14.5855085 15.6156029,14.181398 15.32,13.89 L2.59,1.17 C2.31006612,0.886627948 1.92832486,0.727138959 1.53,0.727138959 C1.13167514,0.727138959 0.749933882,0.886627948 0.47,1.17 C-0.109457467,1.75787977 -0.109457467,2.70212023 0.47,3.29 L11.69,14.5 Z" id="Shape"></path>
        </g>
    </g>
</svg>